<svg xmlns="http://www.w3.org/2000/svg" xmlns:xlink="http://www.w3.org/1999/xlink" width="102" height="102" viewBox="0 0 102 102">
  <defs>
    <filter id="path_412" x="0" y="0" width="102" height="102" filterUnits="userSpaceOnUse">
      <feOffset input="SourceAlpha"/>
      <feGaussianBlur stdDeviation="2" result="blur"/>
      <feFlood flood-opacity="0.149"/>
      <feComposite operator="in" in2="blur"/>
      <feComposite in="SourceGraphic"/>
    </filter>
  </defs>
  <g id="icon-bold-media-show-fill" transform="translate(3 3)">
    <g id="group_576" data-name="group 576">
      <g transform="matrix(1, 0, 0, 1, -3, -3)" filter="url(#path_412)">
        <path id="path_412-2" data-name="path-412" d="M48,3A45,45,0,1,1,3,48,45,45,0,0,1,48,3ZM41.2,26.062A3.952,3.952,0,0,0,35,29.224l0,.21V66.566a4,4,0,0,0,2.064,3.59,3.89,3.89,0,0,0,1.861.475,4.164,4.164,0,0,0,2.06-.561l.215-.131,28.574-18.49a4.052,4.052,0,0,0,.177-6.778l-.177-.12L41.2,26.06Z" transform="translate(3 3)" fill="#fff"/>
      </g>
    </g>
  </g>
</svg>
