<?xml version="1.0" encoding="UTF-8"?>
<svg width="96px" height="96px" viewBox="0 0 96 96" version="1.1" xmlns="http://www.w3.org/2000/svg" xmlns:xlink="http://www.w3.org/1999/xlink">
    <title>Icon / Regular / Trade-in / Battery_charging</title>
    <g id="Icon-/-Regular-/-Trade-in-/-Battery_charging" stroke="none" stroke-width="1" fill="none" fill-rule="evenodd">
        <polygon id="Path" fill="#000000" fill-rule="nonzero" points="47.17 71.25 42.84 68.75 51.66 53.5 35.66 53.5 48.83 30.75 53.16 33.25 44.34 48.5 60.33 48.5"></polygon>
        <path d="M72,93 L24,93 C22.0670034,93 20.5,91.4329966 20.5,89.5 L20.5,16.5 C20.5,14.5670034 22.0670034,13 24,13 L35.5,13 L35.5,6.5 C35.5,4.56700338 37.0670034,3 39,3 L57,3 C58.9329966,3 60.5,4.56700338 60.5,6.5 L60.5,13 L72,13 C73.9329966,13 75.5,14.5670034 75.5,16.5 L75.5,89.5 C75.5,91.4329966 73.9329966,93 72,93 Z M25.5,88 L70.5,88 L70.5,18 L55.5,18 L55.5,8 L40.5,8 L40.5,18 L25.5,18 L25.5,88 Z" id="Shape" fill="#000000" fill-rule="nonzero"></path>
        <rect id="Rectangle" x="0" y="0" width="96" height="96"></rect>
    </g>
</svg>