<?xml version="1.0" encoding="UTF-8"?>
<svg width="96px" height="96px" viewBox="0 0 96 96" version="1.1" xmlns="http://www.w3.org/2000/svg" xmlns:xlink="http://www.w3.org/1999/xlink">
    <title>*Icon / Regular / Action / Conﬁrmation_result</title>
    <g id="*Icon-/-Regular-/-Action-/-Conﬁrmation_result" stroke="none" stroke-width="1" fill="none" fill-rule="evenodd">
        <path d="M48,2.5 C73.1277119,2.5 93.5,22.8722881 93.5,48 C93.5,73.1283755 73.1280483,93.5 48,93.5 C22.8712881,93.5 2.5,73.1287119 2.5,48 C2.5,22.8719517 22.8716245,2.5 48,2.5 Z M48,7.5 C25.6330662,7.5 7.5,25.6333575 7.5,48 C7.5,70.3672881 25.6327119,88.5 48,88.5 C70.3666425,88.5 88.5,70.3669338 88.5,48 C88.5,25.6337119 70.3662881,7.5 48,7.5 Z M69.2335838,31.2601833 L72.7664162,34.7984167 L43.4847983,64.035338 L23.2333818,43.8102149 L26.7666182,40.2723851 L43.485,56.969 L69.2335838,31.2601833 Z" id="Icon-/-Regular-/-Action-/-Conﬁrmation_result" fill="#000000" fill-rule="nonzero"></path>
    </g>
</svg>