<svg xmlns="http://www.w3.org/2000/svg" width="16" height="16" viewBox="0 0 16 16">
  <path id="path_11" data-name="path-11" d="M7.474,1.074a.723.723,0,0,1,1.369-.037l.015.037,1.811,4.642,4.784.367a.781.781,0,0,1,.478,1.339l-.026.025-.027.025-3.661,3.235,1.144,4.865a.746.746,0,0,1-1.059.895l-.031-.016-.029-.018L8.166,13.787,4.088,16.433a.741.741,0,0,1-1.133-.791l.006-.034.008-.035,1.144-4.865L.452,7.472a.784.784,0,0,1,.356-1.38l.035-.005.036,0,4.784-.366L7.474,1.074Z" transform="translate(-0.166 -0.563)" fill="#757575"/>
</svg>
