<svg xmlns="http://www.w3.org/2000/svg" width="96" height="96" viewBox="0 0 96 96">
  <g fill="none" fill-rule="evenodd">
    <rect width="96" height="96"/>
    <circle cx="48" cy="48" r="44" fill="#757575" fill-rule="nonzero"/>
    <circle cx="48" cy="48" r="46" stroke="#000" stroke-linejoin="bevel" stroke-opacity=".15" stroke-width="4"/>
    <path fill="#FFF" fill-rule="nonzero" d="M44.9879095,89.9920854 C23.5842457,89.9784257 5.15025506,74.8946075 0.900594182,53.9170625 C-3.3490667,32.9395175 7.76105362,11.8706113 27.4719095,3.52799958 C50.3600691,-6.09223034 76.7156863,4.63679625 86.3771855,27.5075659 C96.0386847,50.3783356 85.3572149,76.7532626 62.5039095,86.4559996 C56.9626024,88.8011108 51.0050096,90.0037855 44.9879095,89.9920854 Z M35.9119095,22.3599946 L35.9119095,22.3599946 C35.2620918,22.358953 34.6225757,22.5223581 34.0529095,22.8349996 C32.8156107,23.5180459 32.0306034,24.8033291 31.9879095,26.2159996 L31.9879095,26.4259996 L31.9879095,63.5579996 C31.9547406,65.0453885 32.7498151,66.4282942 34.0519095,67.1479996 C34.6225333,67.4599299 35.2625934,67.6229544 35.9129095,67.6220038 C36.6362595,67.6165751 37.345783,67.4232567 37.9719095,67.0609996 L38.1879095,66.9299996 L66.7629095,48.4419996 C67.9254992,47.7230582 68.6473751,46.4665287 68.682852,45.1000614 C68.718329,43.7335942 68.0626271,42.4412993 66.9389095,41.6629996 L66.7629095,41.5429996 L38.1879095,23.0539996 C37.5115015,22.6086252 36.720753,22.3683098 35.9109095,22.3619996 L35.9119095,22.3599946 Z" transform="translate(3.012 3.008)"/>
  </g>
</svg>
