<svg xmlns="http://www.w3.org/2000/svg" id="icon_offer" width="20.004" height="20.003" viewBox="0 0 20.004 20.003">
    <defs>
        <clipPath id="clip-path">
            <path id="패스_8181" d="M1070.227 404a.477.477 0 0 0-.453.323 3.883 3.883 0 0 0 0 2.082.477.477 0 0 0 .89.036l.013-.036a3.886 3.886 0 0 0 0-2.082.476.476 0 0 0-.45-.323zm-.009-.966q1.761 0 1.758 2.33t-1.758 2.33q-1.758 0-1.76-2.33t1.76-2.332zm5.439 4.091a.479.479 0 0 0-.453.323 3.883 3.883 0 0 0 0 2.082.477.477 0 0 0 .9 0 3.886 3.886 0 0 0 0-2.082.479.479 0 0 0-.447-.325zm-.375-3.962l-3.546 7.545h-1.154l3.546-7.545zm.364 3q1.758 0 1.76 2.33t-1.76 2.33q-1.761 0-1.758-2.312v-.018q.001-2.336 1.758-2.336zm-2.714-7.96l-1.44 1.513a.952.952 0 0 1-.925.246l-2-.59-.5 2.031a.95.95 0 0 1-.677.677l-2.031.49.59 2a.947.947 0 0 1-.246.925l-1.513 1.447 1.513 1.44a.952.952 0 0 1 .246.925l-.59 2 2.031.49a.95.95 0 0 1 .677.666l.49 2.031 2-.59a.843.843 0 0 1 .253-.018.954.954 0 0 1 .679.282l1.44 1.513 1.44-1.513a.956.956 0 0 1 .925-.246l2 .59.5-2.02a.95.95 0 0 1 .666-.666l2.031-.49-.59-2a.957.957 0 0 1 .246-.925l1.525-1.469-1.513-1.44a.958.958 0 0 1-.246-.925l.59-2-2.019-.5a.95.95 0 0 1-.666-.677l-.513-2.031-2 .59a.952.952 0 0 1-.925-.246zm0-1.265a.768.768 0 0 1 .555.237l1.609 1.691 2.237-.666a.762.762 0 0 1 .961.553l.548 2.27 2.27.548a.765.765 0 0 1 .555.961l-.666 2.237 1.7 1.616a.767.767 0 0 1 0 1.11l-1.691 1.609.666 2.237a.765.765 0 0 1-.557.963l-2.272.546-.546 2.27a.779.779 0 0 1-.364.475.763.763 0 0 1-.6.069l-2.237-.666-1.609 1.707a.767.767 0 0 1-1.11 0l-1.609-1.691-2.237.666a.766.766 0 0 1-.961-.555l-.548-2.275-2.268-.548a.764.764 0 0 1-.555-.961l.666-2.237-1.7-1.609a.767.767 0 0 1 0-1.11l1.691-1.609-.666-2.237a.787.787 0 0 1 .568-.963l2.268-.546.546-2.268a.765.765 0 0 1 .963-.555l2.237.666 1.6-1.7a.769.769 0 0 1 .556-.241z" class="cls-1" transform="translate(-1062.93 -396.932)"/>
        </clipPath>
        <clipPath id="clip-path-2">
            <path id="사각형_2318" d="M0 0H426.089V239.675H0z" class="cls-1"/>
        </clipPath>
        <style>
            .cls-1{fill:none}
        </style>
    </defs>
    <g id="그룹_11587" clip-path="url(#clip-path)">
        <g id="그룹_11586" transform="translate(-235.887 -88.088)">
            <g id="그룹_11585" clip-path="url(#clip-path-2)">
                <path id="사각형_2317" d="M0 0H20.447V20.447H0z" transform="translate(235.665 87.866)"/>
            </g>
        </g>
    </g>
</svg>
