<?xml version="1.0" encoding="utf-8"?>
<!-- Generator: Adobe Illustrator 21.1.0, SVG Export Plug-In . SVG Version: 6.00 Build 0)  -->
<svg version="1.1" id="레이어_1" xmlns="http://www.w3.org/2000/svg" xmlns:xlink="http://www.w3.org/1999/xlink" x="0px"
	 y="0px" viewBox="0 0 30 10" style="enable-background:new 0 0 30 10;" xml:space="preserve">
<style type="text/css">
	.st0{fill-rule:evenodd;clip-rule:evenodd;}
</style>
<path class="st0" d="M26,0h-6c-2.2,0-4,1.8-4,4h2c0-1.1,0.9-2,2-2h6c1.1,0,2,0.9,2,2v2c0,1.1-0.9,2-2,2h-6c-1.1,0-2-0.9-2-2h-2
	c0,2.2,1.8,4,4,4h6c2.2,0,4-1.8,4-4V4C30,1.8,28.2,0,26,0z M10,8H4C2.9,8,2,7.1,2,6V4c0-1.1,0.9-2,2-2h6c1.1,0,2,0.9,2,2h2
	c0-2.2-1.8-4-4-4H4C1.8,0,0,1.8,0,4l0,2c0,2.2,1.8,4,4,4h6c2.2,0,4-1.8,4-4h-2C12,7.1,11.1,8,10,8z M7,5c0,0.6,0.4,1,1,1h14
	c0.6,0,1-0.4,1-1s-0.4-1-1-1H8C7.4,4,7,4.4,7,5z"/>
</svg>
