<?xml version="1.0" encoding="utf-8"?>
<!-- Generator: Adobe Illustrator 21.1.0, SVG Export Plug-In . SVG Version: 6.00 Build 0)  -->
<svg version="1.1" id="레이어_1" xmlns="http://www.w3.org/2000/svg" xmlns:xlink="http://www.w3.org/1999/xlink" x="0px"
	 y="0px" viewBox="0 0 16 24" style="enable-background:new 0 0 16 24;" xml:space="preserve">
<style type="text/css">
	.st0{fill-rule:evenodd;clip-rule:evenodd;}
</style>
<g>
	<g>
		<path class="st0" fill="#1428a0" d="M8,0C3.6,0,0,3.6,0,8v8c0,4.4,3.6,8,8,8c4.4,0,8-3.6,8-8V8C16,3.6,12.4,0,8,0z M14,16c0,3.3-2.7,6-6,6
			c-3.3,0-6-2.7-6-6V8c0-3.3,2.7-6,6-6c3.3,0,6,2.7,6,6V16z"/>
	</g>
</g>
<path class="st0" fill="#1428a0" d="M8,3.5c0.8,0,1.5,0.7,1.5,1.5v3c0,0.8-0.7,1.5-1.5,1.5S6.5,8.8,6.5,8V5C6.5,4.2,7.2,3.5,8,3.5z"/>
</svg>
